<?xml version="1.0" standalone="no"?>
<!DOCTYPE svg PUBLIC "-//W3C//DTD SVG 20010904//EN"
 "http://www.w3.org/TR/2001/REC-SVG-20010904/DTD/svg10.dtd">
<svg version="1.0" xmlns="http://www.w3.org/2000/svg"
 width="956.000000pt" height="1244.000000pt" viewBox="0 0 956.000000 1244.000000"
 preserveAspectRatio="xMidYMid meet">

<g transform="translate(0.000000,1244.000000) scale(0.100000,-0.100000)"
fill="#000000" stroke="none">
<path d="M5630 11155 c-36 -8 -92 -23 -124 -34 -33 -12 -79 -21 -102 -21 -24
0 -59 -8 -79 -17 -31 -15 -37 -15 -45 -3 -7 12 -12 12 -22 2 -6 -6 -20 -12
-30 -12 -32 0 -19 -19 15 -22 51 -5 42 -32 -13 -38 -60 -7 -80 -2 -80 21 0 15
-7 19 -39 19 -22 0 -42 -4 -45 -8 -3 -5 -25 -7 -50 -6 -25 2 -49 -2 -52 -8 -4
-7 -2 -8 4 -4 7 4 12 3 12 -3 0 -6 -12 -13 -27 -16 -24 -5 -69 -24 -135 -56
-10 -5 -25 -9 -34 -9 -19 0 -75 -39 -112 -77 -17 -17 -19 -23 -7 -23 8 0 15
-4 15 -10 0 -5 -4 -10 -9 -10 -5 0 -19 -11 -32 -25 -13 -13 -29 -25 -36 -25
-7 0 -43 -31 -82 -69 -38 -38 -66 -60 -60 -50 5 10 13 27 18 37 7 14 5 19 -4
19 -8 0 -14 -3 -13 -6 1 -16 -15 -50 -26 -54 -7 -3 -21 -27 -31 -54 -10 -26
-33 -66 -52 -87 -18 -22 -33 -43 -33 -48 0 -18 29 -7 44 17 19 29 56 34 52 8
-2 -9 -8 -19 -14 -21 -7 -2 -12 -10 -12 -18 0 -9 5 -12 10 -9 6 3 10 1 10 -4
0 -14 -13 -14 -28 1 -9 9 -15 8 -27 -8 -8 -10 -15 -27 -15 -36 0 -10 -4 -18
-10 -18 -6 0 -6 9 0 26 15 38 12 46 -9 32 -11 -7 -18 -15 -15 -19 2 -4 0 -10
-5 -13 -5 -4 -9 -19 -9 -34 0 -15 -1 -31 -2 -37 -1 -5 -2 -32 -1 -58 1 -33 5
-46 12 -41 7 4 10 1 7 -7 -7 -20 11 -80 33 -108 24 -31 24 -58 -2 -123 -25
-64 -20 -121 18 -216 61 -154 87 -272 63 -287 -15 -9 -12 -35 4 -35 20 0 24
-8 30 -60 3 -24 9 -46 14 -49 17 -11 52 -103 52 -136 0 -18 -6 -45 -14 -60
-10 -19 -12 -35 -5 -52 5 -13 9 -40 9 -59 0 -21 6 -37 15 -40 19 -8 42 -76 50
-146 7 -60 25 -90 25 -41 0 15 -7 94 -15 175 -16 164 -14 187 19 368 31 165
64 233 119 246 49 12 51 11 66 -19 8 -15 16 -25 19 -22 3 2 11 -3 18 -13 7 -9
14 -12 14 -7 0 6 24 10 53 11 62 1 68 3 128 33 l47 23 98 -26 c55 -15 107 -27
116 -27 10 0 20 -4 23 -10 4 -5 15 -9 26 -9 10 0 19 -7 19 -15 0 -15 -8 -17
-161 -34 -102 -11 -213 -50 -224 -78 -3 -9 -4 -18 -1 -20 2 -2 40 15 84 38 72
37 88 42 171 47 66 3 91 2 91 -7 0 -16 -12 -19 -100 -25 -90 -6 -128 -18 -198
-63 -57 -36 -60 -56 -8 -52 17 2 36 0 42 -3 13 -9 25 1 47 35 23 36 43 34 84
-8 54 -56 124 -44 153 25 15 35 27 37 77 10 21 -11 43 -20 50 -20 7 0 13 -4
13 -10 0 -5 -7 -10 -16 -10 -8 0 -12 -5 -9 -10 6 -9 47 -5 68 7 5 3 1 13 -8
24 -17 17 -15 18 40 15 61 -4 62 -3 68 54 3 28 8 36 28 38 32 5 61 37 57 65
-1 12 1 28 5 35 5 7 5 22 2 33 -5 16 -12 19 -30 15 -19 -5 -26 0 -38 24 -9 16
-11 30 -6 30 5 0 9 5 9 10 0 7 -7 7 -20 0 -11 -6 -25 -8 -30 -5 -6 3 -10 0
-10 -8 0 -18 -31 -17 -46 2 -6 8 -16 11 -23 7 -6 -4 -22 -1 -34 7 -12 8 -40
17 -62 21 -95 16 -99 18 -82 28 9 5 17 14 17 19 0 6 11 25 25 44 41 52 109 67
318 66 83 0 125 4 140 13 12 8 40 19 62 26 50 15 269 121 273 132 2 4 12 8 22
8 28 0 51 11 44 21 -6 11 14 39 28 39 5 0 6 -5 2 -12 -5 -8 0 -9 14 -6 19 5
21 3 17 -18 -3 -13 -7 -35 -10 -48 -3 -13 -8 -32 -11 -43 -5 -12 -4 -15 3 -8
14 13 42 102 48 151 3 22 14 46 25 55 10 9 17 19 14 21 -2 3 6 3 19 1 23 -5
24 -7 15 -46 -31 -139 -27 -166 7 -45 15 55 25 72 40 74 24 4 55 -23 55 -47 0
-9 19 -36 41 -59 l42 -42 -29 -23 -29 -23 28 5 c22 4 27 2 27 -15 0 -11 6 -22
14 -25 7 -3 16 -23 19 -44 20 -118 47 -275 56 -323 19 -97 8 -100 -68 -19 -66
71 -69 73 -122 76 -75 5 -79 5 -79 14 0 3 -23 14 -51 23 -42 14 -72 16 -165
10 -62 -4 -123 -12 -136 -20 -13 -7 -36 -20 -53 -28 -28 -15 -55 -55 -55 -82
0 -7 -5 -14 -12 -16 -13 -5 -17 -128 -5 -171 7 -26 10 -27 58 -22 46 4 50 3
44 -14 -6 -20 4 -26 54 -36 16 -3 20 1 18 17 -1 11 7 26 20 35 21 14 23 13 38
-25 27 -66 114 -86 154 -36 12 15 21 33 21 40 0 38 62 -1 90 -57 20 -38 21
-39 75 -39 56 0 69 12 43 39 -11 10 -10 11 3 6 20 -7 31 17 23 49 -7 31 -173
110 -267 128 -37 8 -68 18 -69 23 0 6 16 18 37 28 54 26 253 30 278 5 10 -9
26 -20 37 -23 11 -3 20 -12 20 -20 0 -8 9 -17 21 -20 11 -4 18 -13 16 -19 -5
-12 8 -14 46 -7 4 0 7 9 7 18 0 35 9 5 15 -52 4 -33 10 -64 13 -70 4 -5 9 -63
13 -128 4 -87 9 -121 20 -128 15 -9 20 9 34 123 5 42 12 52 71 103 36 32 74
75 85 96 10 21 31 46 45 55 23 16 27 16 41 1 8 -8 24 -39 34 -69 10 -29 18
-46 19 -37 0 9 -5 30 -11 48 -6 17 -8 42 -5 55 5 19 11 23 28 18 41 -10 61
-38 66 -92 3 -31 1 -50 -6 -50 -5 0 -9 -17 -9 -37 2 -30 8 -40 33 -55 39 -23
55 -17 79 30 11 20 28 44 37 54 10 10 20 29 24 44 8 30 -9 135 -35 219 -14 44
-16 68 -9 98 6 28 5 43 -3 51 -9 8 -10 6 -5 -9 7 -20 7 -20 -14 0 -22 23 -35
65 -19 65 5 0 12 -6 15 -13 6 -16 34 -19 34 -4 0 5 7 4 15 -3 13 -11 15 -8 15
17 0 39 -35 141 -60 175 -11 15 -17 35 -14 45 4 13 3 14 -3 5 -12 -16 -37 11
-46 48 -6 25 -6 25 17 -4 l24 -29 -8 39 c-41 193 -81 293 -159 399 -92 125
-132 175 -140 175 -4 0 -29 27 -55 59 -47 58 -81 85 -70 56 11 -27 -50 12 -69
45 -10 16 -22 30 -26 30 -5 0 -11 7 -14 14 -4 11 -1 13 10 9 13 -5 13 -2 -2
20 -9 15 -21 27 -25 27 -11 0 -60 45 -60 55 0 12 -40 38 -47 31 -3 -3 9 -19
26 -36 38 -39 40 -53 4 -39 -15 5 -37 8 -48 5 -17 -4 -25 4 -45 47 -13 29 -30
56 -37 60 -7 4 -13 17 -13 27 0 21 -16 27 -22 9 -2 -5 -16 -12 -30 -13 -31 -4
-64 25 -55 48 4 9 -5 18 -26 26 -18 7 -41 16 -52 20 -11 5 -45 14 -75 21 -30
6 -68 15 -84 20 -45 14 -401 9 -476 -6z m-235 -98 c11 -2 -4 -5 -34 -6 l-54
-1 24 21 c20 17 25 18 34 6 6 -8 19 -17 30 -20z m2 -43 c-3 -3 -12 -4 -19 -1
-8 3 -5 6 6 6 11 1 17 -2 13 -5z m-373 -59 c-4 -10 0 -15 12 -16 11 -1 -12 -7
-51 -14 -38 -7 -71 -12 -73 -10 -1 1 12 9 30 18 25 12 34 13 40 4 7 -11 9 -8
7 9 -1 7 22 24 33 24 4 0 5 -7 2 -15z m53 9 c-3 -3 -12 -4 -19 -1 -8 3 -5 6 6
6 11 1 17 -2 13 -5z m226 -1 c-7 -2 -19 -2 -25 0 -7 3 -2 5 12 5 14 0 19 -2
13 -5z m232 -22 c-12 -11 -102 -31 -165 -38 -25 -3 -47 -8 -50 -12 -3 -4 -27
-13 -55 -20 -27 -6 -58 -14 -67 -17 -10 -3 -18 -1 -18 5 0 5 9 13 20 16 11 3
20 10 20 15 0 5 -8 7 -17 4 -15 -5 -16 -4 -3 5 8 6 24 11 35 11 17 0 18 -2 5
-11 -12 -8 -10 -10 10 -6 45 9 184 38 220 46 50 12 76 13 65 2z m1030 -81 c3
-5 1 -10 -4 -10 -6 0 -11 5 -11 10 0 6 2 10 4 10 3 0 8 -4 11 -10z m-1810 -60
c-10 -11 -23 -20 -29 -20 -6 0 0 9 14 20 32 25 38 25 15 0z m1423 -10 c-14 -4
-32 -11 -40 -15 -7 -3 -4 1 6 9 11 9 29 16 40 15 17 -1 16 -2 -6 -9z m-1433
-42 c-8 -20 -84 -68 -100 -61 -19 7 -7 32 13 26 10 -2 32 10 51 27 34 32 46
34 36 8z m370 12 c-3 -5 -14 -10 -23 -9 -14 0 -13 2 3 9 27 11 27 11 20 0z
m945 0 c-20 -13 -33 -13 -25 0 3 6 14 10 23 10 15 0 15 -2 2 -10z m-1085 -18
c-3 -3 -11 0 -18 7 -9 10 -8 11 6 5 10 -3 15 -9 12 -12z m65 9 c0 -12 -39 -21
-45 -11 -3 5 5 11 17 13 13 2 24 5 26 6 1 0 2 -3 2 -8z m800 -61 c-20 -13 -40
-13 -40 0 0 6 12 10 28 10 21 0 24 -2 12 -10z m-56 -8 c2 -4 -4 -9 -15 -9 -11
-1 -17 2 -14 8 7 11 22 12 29 1z m-151 -44 c-17 -8 -29 -8 -45 0 -20 9 -18 11
22 11 40 0 42 -2 23 -11z m-213 -38 c0 -5 9 -10 21 -10 11 0 18 -4 14 -10 -3
-5 29 -21 72 -35 43 -14 65 -23 48 -20 -16 3 -56 8 -87 11 -33 4 -56 11 -55
18 1 6 -8 12 -21 14 -12 2 -20 8 -17 13 4 5 0 9 -7 9 -9 0 -9 3 2 10 19 13 30
13 30 0z m-834 -9 c-3 -4 7 -14 21 -20 22 -10 24 -14 12 -22 -11 -7 -10 -9 6
-7 11 0 36 0 55 -2 l35 -3 -40 -6 c-52 -8 -102 -2 -84 10 9 6 10 9 2 9 -6 0
-19 3 -29 7 -12 4 -15 3 -10 -5 5 -8 0 -12 -13 -12 -23 0 -28 -16 -8 -23 6 -3
-8 -2 -33 1 -25 3 -48 9 -51 15 -4 5 -14 7 -23 4 -10 -4 -16 -1 -16 7 0 9 7
12 19 9 12 -3 20 2 24 16 3 12 13 21 22 21 11 0 15 -5 11 -15 -4 -11 2 -15 26
-15 17 0 28 3 24 7 -3 4 6 12 21 19 35 16 35 16 29 5z m132 -78 c-10 -2 -26
-2 -35 0 -10 3 -2 5 17 5 19 0 27 -2 18 -5z m612 -53 c0 -5 -21 -10 -47 -9
-39 1 -43 2 -23 9 36 12 70 12 70 0z m-875 -20 c3 -5 2 -10 -4 -10 -5 0 -13 5
-16 10 -3 6 -2 10 4 10 5 0 13 -4 16 -10z m690 -20 c4 -6 -6 -10 -22 -10 -22
0 -25 2 -13 10 19 12 27 12 35 0z m-47 -24 c7 -4 10 -11 7 -16 -3 -5 7 -16 22
-24 l28 -16 -45 4 c-72 6 -130 18 -130 27 0 4 -8 10 -17 12 -13 3 -12 5 5 6
14 1 20 5 17 12 -8 12 93 8 113 -5z m-738 -50 c0 -24 -21 -30 -38 -12 -16 16
-16 17 2 10 13 -5 17 -4 12 4 -4 7 -1 12 8 12 9 0 16 -6 16 -14z m460 10 c0
-2 -9 -6 -20 -9 -11 -3 -18 -1 -14 4 5 9 34 13 34 5z m1464 -141 c-4 -8 -10
-12 -15 -9 -11 6 -2 24 11 24 5 0 7 -7 4 -15z m-32 -20 c11 -15 10 -27 -2 -20
-5 3 -10 -3 -10 -13 0 -18 -46 -61 -94 -89 -17 -9 -23 -8 -37 9 -10 10 -21 19
-26 20 -4 0 -15 4 -23 9 -13 7 -12 8 3 9 12 0 17 8 17 30 0 21 5 30 16 30 10
0 13 -6 10 -18 -10 -30 32 -25 51 6 10 15 22 30 28 34 14 10 58 5 67 -7z
m-1666 -15 c16 -6 38 -23 48 -38 19 -27 19 -27 0 -12 -31 24 -62 40 -79 40 -9
0 -13 5 -10 10 8 12 6 12 41 0z m-9 -26 c-3 -3 -12 -4 -19 -1 -8 3 -5 6 6 6
11 1 17 -2 13 -5z m-147 -94 c12 -8 9 -10 -13 -10 -16 0 -26 4 -22 10 8 12 16
12 35 0z m376 -6 c66 -22 74 -32 25 -30 -22 0 -34 4 -28 8 7 5 2 8 -13 8 -28
1 -76 30 -49 30 9 0 38 -7 65 -16z m1214 -29 c-7 -8 -17 -12 -23 -8 -6 4 -3 9
9 14 27 11 28 11 14 -6z m-57 -32 c-7 -2 -21 -2 -30 0 -10 3 -4 5 12 5 17 0
24 -2 18 -5z m-63 -23 c-20 -13 -33 -13 -25 0 3 6 14 10 23 10 15 0 15 -2 2
-10z m-147 -57 c-7 -2 -19 -2 -25 0 -7 3 -2 5 12 5 14 0 19 -2 13 -5z m-1228
-43 c3 -5 -1 -10 -9 -10 -9 0 -16 5 -16 10 0 6 4 10 9 10 6 0 13 -4 16 -10z
m822 -83 c-22 -43 -45 -58 -79 -55 l-33 4 42 13 c24 8 50 25 58 38 20 30 27
30 12 0z m1733 -66 c21 -41 6 -136 -16 -99 -5 8 -10 6 -16 -8 -6 -13 -7 -9 -3
15 3 18 5 51 5 72 0 42 13 51 30 20z m177 -212 c14 -40 17 -175 4 -183 -12 -8
-18 11 -25 80 -4 32 -9 79 -12 103 -7 53 14 53 33 0z m-187 -1 c0 -19 -2 -20
-10 -8 -13 19 -13 30 0 30 6 0 10 -10 10 -22z m140 3 c0 -5 3 -17 7 -27 4 -11
3 -15 -4 -11 -14 9 -24 47 -12 47 5 0 9 -4 9 -9z m-829 -103 c26 -11 59 -33
75 -49 l28 -29 -50 16 c-69 22 -217 64 -228 64 -16 0 6 17 29 23 31 8 95 -3
146 -25z m499 12 c0 -11 0 -23 0 -27 0 -4 -6 -8 -15 -9 -16 -2 -19 13 -9 40 9
23 24 20 24 -4z m341 -81 c6 -57 -7 -104 -21 -78 -8 13 -13 78 -11 122 2 41
26 7 32 -44z m-971 21 c0 -5 -4 -10 -10 -10 -5 0 -10 5 -10 10 0 6 5 10 10 10
6 0 10 -4 10 -10z"/>
<path d="M5041 10376 c2 -2 15 -9 29 -15 24 -11 24 -11 6 3 -16 13 -49 24 -35
12z"/>
<path d="M6097 10119 c7 -7 15 -10 18 -7 3 3 -2 9 -12 12 -14 6 -15 5 -6 -5z"/>
<path d="M6395 11060 c3 -5 11 -10 16 -10 6 0 7 5 4 10 -3 6 -11 10 -16 10 -6
0 -7 -4 -4 -10z"/>
<path d="M4620 10840 c-9 -6 -10 -10 -3 -10 6 0 15 5 18 10 8 12 4 12 -15 0z"/>
<path d="M4509 10753 c-13 -16 -12 -17 4 -4 16 13 21 21 13 21 -2 0 -10 -8
-17 -17z"/>
<path d="M6233 9917 c-36 -51 -112 -127 -129 -127 -9 0 -12 5 -8 12 5 7 3 8
-5 4 -7 -5 -10 -11 -6 -14 7 -7 -130 -72 -152 -72 -20 0 -8 -13 15 -16 28 -5
161 65 207 107 23 21 44 37 47 34 2 -3 20 14 38 38 19 23 27 36 17 28 -19 -15
-23 -1 -5 17 6 6 10 14 7 16 -2 3 -14 -10 -26 -27z"/>
<path d="M5660 9710 c-9 -6 -10 -10 -3 -10 6 0 15 5 18 10 8 12 4 12 -15 0z"/>
<path d="M7306 9683 c9 -38 14 -42 14 -10 0 14 -5 29 -10 32 -7 4 -8 -3 -4
-22z"/>
<path d="M7322 9590 c0 -14 2 -19 5 -12 2 6 2 18 0 25 -3 6 -5 1 -5 -13z"/>
<path d="M4362 9348 c-14 -14 -16 -44 -4 -52 5 -3 16 10 25 29 13 27 14 35 4
35 -7 0 -18 -5 -25 -12z"/>
<path d="M5338 9259 c-22 -12 -23 -29 -2 -29 8 0 13 4 9 9 -3 6 3 14 12 20 10
6 14 10 8 10 -5 0 -18 -4 -27 -10z"/>
<path d="M5263 9233 c-24 -2 -43 -8 -43 -12 0 -11 72 -3 85 10 5 5 7 8 5 7 -3
-1 -24 -3 -47 -5z"/>
<path d="M5565 8796 c-52 -24 -69 -40 -53 -53 24 -19 68 -25 74 -9 10 25 34
27 82 5 51 -23 66 -39 52 -53 -13 -13 10 -55 26 -49 8 3 14 14 14 24 0 17 10
23 32 20 4 0 24 5 45 13 21 7 56 11 79 8 48 -5 114 20 114 43 0 24 -67 48
-110 41 -19 -4 -51 -9 -70 -12 -52 -7 -78 -12 -100 -19 -12 -4 -33 3 -57 19
-49 32 -91 39 -128 22z"/>
<path d="M4601 8754 c0 -11 3 -14 6 -6 3 7 2 16 -1 19 -3 4 -6 -2 -5 -13z"/>
<path d="M4610 8623 c0 -38 4 -52 16 -57 15 -6 16 0 10 41 -9 68 -26 79 -26
16z"/>
<path d="M5662 8499 c-13 -5 -28 -7 -33 -3 -5 3 -9 0 -9 -5 0 -6 -14 -11 -30
-11 -17 0 -49 -9 -72 -21 -22 -11 -65 -23 -95 -26 -54 -6 -55 -5 -48 17 10 32
-14 44 -40 21 -11 -10 -30 -21 -43 -24 -19 -4 -22 -2 -17 14 8 24 -10 25 -38
2 -23 -19 -34 -78 -19 -101 5 -8 28 -16 52 -19 33 -5 45 -2 52 11 6 10 22 16
47 16 22 0 70 10 107 21 59 18 99 22 269 25 213 3 258 -3 302 -40 16 -13 60
-32 98 -41 39 -10 75 -21 81 -26 33 -26 76 30 54 71 -14 26 -13 30 8 23 11 -4
14 -3 7 4 -5 6 -20 14 -32 18 -19 5 -22 3 -17 -12 5 -17 5 -17 -9 0 -9 11 -14
24 -11 31 5 13 -64 48 -79 39 -5 -3 -7 -16 -4 -29 6 -32 -18 -32 -81 0 -26 13
-75 32 -110 41 -54 15 -71 16 -117 6 -39 -9 -64 -9 -92 -2 -45 13 -51 13 -81
0z"/>
<path d="M6591 8440 c-28 -28 -51 -56 -51 -61 0 -5 -7 -9 -15 -9 -8 0 -19 -9
-25 -20 -6 -11 -17 -20 -25 -20 -9 0 -15 -10 -15 -22 -1 -26 -81 -118 -103
-118 -8 0 -21 -10 -29 -22 -17 -26 -48 -19 -48 12 0 11 -4 20 -10 20 -5 0 -7
-14 -3 -32 3 -18 2 -30 -2 -26 -10 9 -49 -28 -41 -40 3 -5 -6 -14 -21 -21 -25
-12 -25 -12 -7 -33 19 -21 19 -21 0 -15 -15 6 -17 3 -13 -12 3 -14 -2 -21 -20
-25 -15 -4 -21 -11 -16 -19 4 -7 -2 -5 -12 3 -17 14 -18 13 -13 -5 5 -23 -17
-51 -27 -35 -10 16 -36 11 -55 -10 -15 -18 -19 -18 -30 -5 -11 13 -14 14 -24
0 -12 -16 -27 -10 -45 20 -11 18 -12 18 -8 -8 4 -23 2 -25 -11 -15 -16 14 -54
17 -63 5 -3 -4 -16 -9 -28 -10 -13 -1 -24 -10 -27 -24 -6 -23 -24 -32 -24 -13
0 6 -7 10 -15 10 -8 0 -15 4 -15 9 0 5 -9 13 -20 16 -11 3 -20 13 -20 21 0 20
-13 17 -28 -6 -10 -17 -15 -18 -38 -8 -22 10 -27 9 -36 -5 -5 -10 -14 -15 -19
-12 -5 4 -7 11 -4 16 4 5 -3 9 -14 9 -12 0 -21 6 -21 13 0 6 -7 3 -16 -8 -9
-12 -18 -16 -22 -10 -4 6 -17 10 -30 9 -12 -1 -27 6 -32 15 -7 12 -13 14 -27
5 -20 -11 -56 -7 -48 6 3 5 1 11 -5 15 -5 3 -10 1 -10 -4 0 -22 -20 -10 -26
14 -5 21 -9 23 -21 13 -11 -9 -16 -9 -23 2 -7 11 -11 8 -21 -12 -10 -23 -15
-25 -35 -18 -13 5 -32 6 -41 3 -14 -5 -16 -4 -8 8 6 8 3 7 -5 -2 -14 -15 -17
-14 -46 18 -31 35 -67 38 -58 5 3 -9 -1 -7 -7 6 -7 13 -18 21 -25 18 -7 -3
-18 2 -26 11 -10 13 -10 17 0 20 6 3 12 10 12 16 0 8 -4 7 -12 -1 -15 -15 -48
-16 -48 -2 0 6 -7 10 -15 10 -8 0 -15 7 -15 16 0 19 -40 58 -49 48 -3 -4 0 -9
7 -11 17 -6 15 -23 -3 -23 -10 0 -15 10 -15 29 0 24 -4 29 -20 28 -26 -2 -25
-6 6 -52 16 -25 22 -41 15 -48 -5 -5 -7 -16 -4 -23 6 -16 -5 -18 -26 -5 -7 5
-10 14 -7 20 8 12 -40 61 -60 61 -17 0 12 -58 40 -80 39 -31 68 -66 82 -98 7
-18 18 -31 23 -28 5 3 14 -1 21 -9 7 -8 9 -15 4 -15 -5 -1 2 -7 16 -15 14 -8
19 -14 13 -15 -7 0 -13 -7 -13 -16 0 -13 3 -14 14 -5 10 8 16 9 21 1 3 -5 3
-10 -2 -10 -4 0 -1 -5 7 -10 11 -7 5 -10 -23 -10 -23 0 -36 -4 -32 -10 3 -5
15 -10 26 -10 10 0 19 -7 19 -15 0 -8 4 -15 9 -15 5 0 12 -7 15 -16 5 -14 4
-15 -9 -4 -12 10 -15 10 -15 -4 0 -9 7 -16 15 -16 9 0 12 -6 8 -16 -4 -10 -1
-15 8 -14 28 4 39 0 39 -15 0 -8 9 -15 19 -15 28 0 33 -28 9 -52 -18 -18 -19
-22 -6 -29 15 -8 34 -88 29 -116 -1 -8 9 -13 26 -13 22 0 33 -8 47 -32 12 -22
37 -42 75 -61 82 -41 303 -67 479 -58 6 1 12 6 12 12 0 23 27 37 68 34 23 -2
42 1 42 7 0 5 5 6 10 3 6 -4 8 -10 6 -14 -3 -4 1 -8 9 -8 8 0 12 4 10 8 -3 3
2 12 10 19 8 7 15 25 15 41 0 16 5 29 10 29 6 0 10 -7 10 -15 0 -8 4 -15 9
-15 10 0 27 84 22 108 -2 15 30 72 41 72 4 0 8 5 8 11 0 5 -5 7 -11 3 -6 -3
-3 8 6 25 9 18 20 29 24 26 5 -2 9 1 8 8 -1 33 5 45 28 55 14 6 25 17 25 24 0
7 12 27 26 43 14 17 32 42 40 57 8 15 20 25 27 22 7 -2 22 5 34 16 12 11 27
20 32 20 5 0 12 8 15 18 3 9 22 26 41 36 19 10 32 22 30 27 -3 4 5 15 17 23
16 12 24 13 29 4 5 -7 10 -1 15 18 4 16 44 94 89 174 115 203 127 228 119 252
-4 13 -2 18 4 14 5 -3 13 1 16 10 12 32 -3 25 -53 -26z m-256 -331 c-10 -15
-25 -10 -19 6 4 8 10 12 15 9 5 -3 7 -10 4 -15z m-1408 -84 c0 -8 -4 -12 -9
-9 -4 3 -8 9 -8 15 0 5 4 9 8 9 5 0 9 -7 9 -15z m101 -50 c-3 -3 -9 2 -12 12
-6 14 -5 15 5 6 7 -7 10 -15 7 -18z m712 -90 c0 -8 -2 -15 -4 -15 -2 0 -6 7
-10 15 -3 8 -1 15 4 15 6 0 10 -7 10 -15z m-565 -295 c3 -5 1 -10 -4 -10 -6 0
-11 5 -11 10 0 6 2 10 4 10 3 0 8 -4 11 -10z m775 -136 c0 -14 -12 -19 -23 -8
-9 9 4 35 14 28 5 -3 9 -12 9 -20z"/>
<path d="M4661 8454 c0 -11 3 -14 6 -6 3 7 2 16 -1 19 -3 4 -6 -2 -5 -13z"/>
<path d="M4671 8407 c-13 -21 -12 -21 5 -5 10 10 16 20 13 22 -3 3 -11 -5 -18
-17z"/>
<path d="M4690 8320 c11 -22 23 -40 26 -40 2 0 0 9 -6 20 -6 12 -8 30 -5 40 5
16 2 20 -15 20 l-20 0 20 -40z"/>
<path d="M4910 8346 c0 -7 8 -20 17 -27 15 -12 16 -12 10 4 -4 10 -7 23 -7 28
0 5 -4 9 -10 9 -5 0 -10 -6 -10 -14z"/>
<path d="M4725 8310 c3 -5 8 -10 11 -10 2 0 4 5 4 10 0 6 -5 10 -11 10 -5 0
-7 -4 -4 -10z"/>
<path d="M4555 8263 c-17 -42 -18 -260 -1 -354 26 -143 117 -533 127 -544 5
-5 9 -21 9 -35 0 -32 33 -136 67 -210 27 -59 33 -91 88 -435 19 -121 41 -249
49 -285 22 -92 40 -204 76 -445 16 -115 39 -268 50 -340 26 -168 59 -392 70
-478 6 -38 16 -107 25 -155 27 -161 46 -296 61 -447 8 -82 17 -157 19 -165 4
-14 37 -311 70 -627 20 -196 51 -693 66 -1042 13 -314 5 -426 -42 -639 -37
-171 -37 -184 -1 -181 15 2 56 -6 90 -16 79 -24 124 -72 122 -132 -2 -66 -5
-98 -13 -109 -3 -6 -8 -26 -9 -43 -2 -25 -6 -31 -20 -28 -10 3 -20 1 -23 -4
-17 -27 -230 -92 -243 -74 -7 10 -26 10 -130 1 -34 -4 -71 -2 -80 3 -11 6 -24
6 -33 0 -10 -6 -10 -9 -1 -9 6 0 12 -4 12 -8 0 -5 -43 -14 -96 -21 -102 -12
-114 -16 -114 -33 0 -7 13 -8 35 -5 43 7 151 -3 135 -13 -7 -4 9 -14 38 -23
40 -14 64 -15 133 -7 46 6 110 10 141 10 32 0 58 5 60 11 3 8 14 8 41 1 34
-10 39 -8 53 14 9 13 20 24 25 24 5 0 9 -39 9 -87 l0 -88 -33 -21 c-23 -16
-45 -21 -80 -19 -26 1 -50 -2 -53 -7 -3 -5 -24 -8 -46 -6 -33 2 -44 -3 -60
-22 -14 -18 -28 -24 -49 -22 -31 4 -211 -37 -219 -49 -3 -4 -28 -16 -55 -26
-57 -22 -133 -22 -255 0 -51 9 -76 10 -79 3 -2 -5 2 -12 9 -14 8 -3 24 -14 36
-26 36 -35 64 -47 107 -48 55 0 58 -3 45 -38 -10 -29 -12 -30 -69 -30 -52 0
-59 2 -59 20 0 11 -5 20 -12 20 -6 0 -19 6 -27 14 -22 20 -91 32 -91 17 0 -7
-4 -9 -10 -6 -5 3 -10 -2 -10 -12 0 -19 55 -47 71 -37 5 3 6 -2 3 -10 -3 -9
-12 -16 -20 -16 -13 0 -52 18 -64 30 -3 3 -16 7 -30 8 -14 2 -30 8 -36 13 -6
5 -13 7 -16 4 -3 -3 -13 4 -23 15 -32 36 -47 26 -43 -29 2 -36 0 -47 -8 -40
-8 6 -14 4 -18 -6 -3 -9 -2 -13 4 -10 6 3 10 -1 10 -9 0 -17 -9 -20 -34 -10
-9 3 -13 11 -9 18 4 6 -1 5 -11 -3 -15 -13 -18 -12 -23 7 -3 12 -12 22 -19 22
-9 0 -14 11 -14 30 0 29 -1 30 -44 24 -30 -5 -53 -2 -72 9 -16 8 -37 18 -46
21 -12 4 -18 16 -18 36 0 16 -4 30 -8 30 -5 0 -15 16 -22 36 -16 39 -34 52
-65 50 -37 -3 -48 -16 -32 -34 25 -30 28 -50 6 -45 -19 5 -29 41 -27 93 0 14
0 34 -1 45 -2 19 -3 19 -11 -1 -13 -33 -52 -26 -62 11 -10 37 10 174 23 154 7
-11 9 -11 9 3 0 9 -6 18 -12 20 -9 3 -9 11 3 29 9 13 19 60 23 104 4 44 9 93
11 109 11 83 -49 -89 -80 -229 -24 -111 -36 -160 -46 -177 -5 -10 -9 -29 -9
-42 0 -14 -5 -37 -11 -53 -15 -35 -21 -303 -8 -303 5 0 22 18 37 40 15 21 35
39 45 40 18 0 25 20 7 20 -11 0 -14 33 -4 43 14 13 34 -7 34 -34 0 -16 5 -29
11 -29 7 0 9 -10 7 -25 -4 -17 -1 -25 8 -25 15 0 36 34 27 44 -3 3 -2 6 4 6 6
0 13 -16 16 -36 5 -27 1 -40 -14 -55 -26 -26 -24 -58 6 -93 14 -16 25 -37 25
-46 0 -22 25 -44 40 -35 5 3 10 16 10 28 0 41 12 68 27 63 10 -4 13 -1 8 13
-5 16 -2 18 15 14 14 -4 20 -1 20 11 0 9 -7 16 -15 16 -8 0 -15 9 -15 20 0 25
10 25 52 2 70 -40 83 -46 90 -47 3 0 10 -3 14 -8 4 -4 29 -7 57 -7 34 0 57 -6
74 -20 15 -12 41 -20 62 -20 20 0 50 -7 66 -16 47 -26 175 -30 233 -9 26 10
52 23 57 29 17 19 54 36 76 36 11 0 36 7 55 16 29 14 33 19 28 47 -4 26 -3 29
6 14 17 -26 35 -21 56 18 10 19 23 36 29 36 5 1 17 2 25 3 21 2 163 74 175 90
18 22 45 27 45 8 0 -25 -25 -124 -75 -305 -69 -246 -72 -257 -90 -337 -9 -41
-35 -124 -56 -185 -22 -60 -44 -122 -49 -137 l-9 -28 708 0 707 0 3 48 c1 26
6 85 11 132 16 138 12 323 -9 445 -11 61 -24 169 -30 240 -7 72 -16 171 -21
220 -20 177 -30 414 -30 685 0 256 -6 414 -45 1145 -9 154 -18 397 -22 540 -6
253 13 1576 24 1619 2 11 7 404 9 871 4 659 8 877 19 968 24 189 20 424 -10
596 -13 79 -26 146 -29 148 -2 2 -11 -22 -20 -54 -9 -32 -25 -76 -36 -98 -11
-22 -20 -46 -20 -52 0 -7 -4 -13 -9 -13 -5 0 -12 6 -14 13 -11 26 -27 -19 -27
-75 0 -62 -14 -78 -24 -27 -8 40 -29 33 -36 -12 -3 -19 -11 -33 -18 -31 -7 1
-12 -9 -12 -24 0 -29 -21 -54 -44 -54 -9 0 -16 -5 -16 -12 0 -6 -3 -9 -6 -5
-11 11 -46 -31 -53 -65 -11 -47 -4 -58 34 -58 25 0 35 5 40 20 6 20 55 30 55
11 0 -4 12 -6 26 -3 18 3 29 -1 40 -17 8 -11 23 -21 33 -21 22 0 31 -19 31
-61 0 -16 5 -29 10 -29 6 0 10 -10 10 -23 0 -13 7 -44 16 -70 15 -46 15 -47
-11 -81 -33 -44 -53 -56 -145 -94 -110 -45 -187 -62 -287 -62 -109 0 -267 23
-308 44 -16 9 -35 16 -42 16 -10 0 -258 120 -369 178 -14 8 -47 35 -73 60 -42
42 -49 56 -66 125 -10 43 -22 80 -27 83 -4 3 -8 19 -8 36 0 23 4 29 15 24 8
-3 15 -1 15 4 0 6 -4 10 -8 10 -10 0 -9 76 1 86 14 14 7 43 -13 54 -11 6 -20
21 -20 35 0 31 -16 40 -29 18 -9 -16 -10 -15 -11 7 0 14 -14 63 -31 110 -96
265 -126 426 -116 617 4 62 5 113 3 113 -2 0 -7 -8 -11 -17z m204 -965 c2 -30
-16 -20 -23 13 -7 39 5 64 15 29 4 -14 7 -33 8 -42z m-839 -6222 c0 -15 -14
-35 -21 -30 -15 9 -10 34 6 34 8 0 15 -2 15 -4z m640 -166 c0 -5 18 -10 40
-10 22 0 40 -5 40 -11 0 -5 5 -7 10 -4 6 4 18 4 28 0 31 -12 -7 -23 -51 -15
-22 5 -55 6 -71 4 -61 -8 -89 22 -35 37 35 10 39 10 39 -1z m195 0 c3 -5 -3
-10 -15 -10 -12 0 -18 5 -15 10 3 6 10 10 15 10 5 0 12 -4 15 -10z m-435 -10
c0 -5 -6 -10 -14 -10 -8 0 -18 5 -21 10 -3 6 3 10 14 10 12 0 21 -4 21 -10z
m-450 -80 c0 -5 -4 -10 -10 -10 -5 0 -10 5 -10 10 0 6 5 10 10 10 6 0 10 -4
10 -10z m600 -30 c5 0 10 -10 12 -22 2 -16 11 -24 28 -26 42 -6 47 -22 7 -22
-20 0 -37 5 -37 10 0 6 -13 10 -29 10 -17 0 -33 5 -36 10 -3 6 1 10 9 10 9 0
16 5 16 10 0 6 -5 10 -11 10 -5 0 -7 5 -4 11 4 6 14 8 22 5 8 -3 18 -6 23 -6z
m130 -20 c0 -5 -15 -10 -34 -10 -19 0 -38 5 -41 10 -4 6 10 10 34 10 23 0 41
-4 41 -10z"/>
<path d="M4760 8246 c0 -22 22 -66 33 -66 5 0 4 6 -2 14 -9 11 -9 15 1 19 10
3 10 9 2 23 -14 23 -34 30 -34 10z"/>
<path d="M4720 8241 c0 -5 9 -19 20 -32 16 -20 19 -21 20 -6 0 9 -4 17 -10 17
-5 0 -10 7 -10 15 0 8 -4 15 -10 15 -5 0 -10 -4 -10 -9z"/>
<path d="M4936 8241 c-4 -7 -5 -15 -2 -18 9 -9 19 4 14 18 -4 11 -6 11 -12 0z"/>
<path d="M4834 8205 c26 -24 36 -30 36 -20 0 8 -44 45 -53 45 -6 0 2 -11 17
-25z"/>
<path d="M5614 8205 c-7 -18 4 -37 17 -30 5 4 9 -2 9 -12 0 -22 40 -29 52 -10
6 9 10 9 17 -1 4 -8 11 -13 15 -13 21 3 26 -1 26 -20 0 -14 5 -19 15 -16 8 4
17 2 21 -4 4 -6 11 -6 20 2 10 8 14 8 14 0 0 -7 19 -11 48 -11 38 0 53 5 79
30 31 29 50 66 39 77 -10 10 -58 14 -214 18 -124 3 -154 1 -158 -10z"/>
<path d="M4850 7986 c0 -9 5 -16 10 -16 6 0 10 4 10 9 0 6 -4 13 -10 16 -5 3
-10 -1 -10 -9z"/>
<path d="M5075 7550 c3 -5 8 -10 11 -10 2 0 4 5 4 10 0 6 -5 10 -11 10 -5 0
-7 -4 -4 -10z"/>
<path d="M4781 7194 c0 -11 3 -14 6 -6 3 7 2 16 -1 19 -3 4 -6 -2 -5 -13z"/>
<path d="M5720 7143 c0 -7 -10 -13 -22 -13 -12 0 -18 -3 -15 -7 8 -7 -38 -33
-59 -33 -27 0 -14 -20 14 -21 15 -1 38 -3 52 -5 14 -2 37 -1 51 2 21 4 25 9
21 29 -2 15 -9 22 -16 18 -6 -3 -6 0 2 8 18 19 15 35 -8 35 -11 0 -20 -6 -20
-13z"/>
<path d="M2584 3943 c-16 -32 -34 -64 -41 -71 -7 -7 -13 -17 -13 -21 0 -5 -16
-19 -35 -32 -29 -20 -35 -30 -35 -62 0 -27 7 -45 25 -63 14 -14 25 -29 25 -34
0 -6 4 -10 8 -10 5 0 19 -9 32 -20 27 -24 40 -25 40 -5 0 8 -4 15 -10 15 -23
0 6 225 30 240 14 9 25 120 12 120 -6 0 -23 -26 -38 -57z"/>
<path d="M2545 3373 c5 -10 14 -38 21 -63 l13 -45 0 43 c1 24 -4 52 -9 63 -13
24 -35 26 -25 2z"/>
<path d="M5152 2447 c-15 -34 -16 -77 -2 -77 13 0 22 41 18 76 l-4 29 -12 -28z"/>
<path d="M4731 2190 c-34 -8 -69 -35 -59 -45 8 -9 38 6 38 19 0 6 15 13 32 14
18 2 37 7 42 12 12 12 -4 12 -53 0z"/>
<path d="M4023 2163 c-47 -4 -55 -19 -25 -46 24 -22 46 -21 80 0 47 30 51 55
9 51 -12 -1 -41 -3 -64 -5z"/>
<path d="M4804 2085 c-4 -8 -15 -15 -25 -15 -10 0 -19 -4 -19 -9 0 -5 -9 -12
-19 -16 -11 -3 -27 -21 -36 -41 -9 -19 -25 -40 -36 -47 -36 -23 -12 -79 52
-120 32 -20 133 -22 149 -2 16 19 50 19 50 0 0 -17 23 -30 70 -39 33 -6 232
18 252 30 17 11 7 21 -34 34 -24 8 -52 20 -63 27 -11 7 -27 13 -36 13 -9 0
-24 9 -34 20 -10 11 -21 18 -24 15 -19 -11 -59 61 -42 78 6 6 -4 23 -29 48
-37 37 -41 39 -105 39 -49 0 -67 -4 -71 -15z m134 -27 c33 -17 58 -73 42 -93
-11 -13 -15 -14 -29 -1 -10 9 -37 13 -72 13 -33 -1 -63 4 -72 12 -9 7 -21 10
-27 6 -17 -10 -11 -40 11 -55 42 -30 92 -81 86 -87 -12 -11 -87 17 -87 32 0 8
-6 15 -14 15 -46 0 -43 84 5 140 28 33 34 35 82 32 29 -2 62 -8 75 -14z"/>
<path d="M6320 2000 c0 -22 5 -40 10 -40 6 0 10 18 10 40 0 22 -4 40 -10 40
-5 0 -10 -18 -10 -40z"/>
<path d="M3893 1993 c-14 -5 -18 -43 -5 -43 11 0 33 38 24 43 -4 2 -13 2 -19
0z"/>
<path d="M7230 1786 c0 -8 5 -18 10 -21 6 -3 10 3 10 14 0 12 -4 21 -10 21 -5
0 -10 -6 -10 -14z"/>
<path d="M3763 1305 c0 -22 2 -30 4 -17 2 12 2 30 0 40 -3 9 -5 -1 -4 -23z"/>
<path d="M3750 1250 c0 -5 5 -10 11 -10 5 0 7 5 4 10 -3 6 -8 10 -11 10 -2 0
-4 -4 -4 -10z"/>
<path d="M7255 1163 c-11 -103 -6 -223 8 -243 9 -13 12 19 13 151 0 93 -3 169
-7 169 -3 0 -10 -35 -14 -77z"/>
<path d="M4292 1149 c2 -6 8 -10 13 -10 5 0 11 4 13 10 2 6 -4 11 -13 11 -9 0
-15 -5 -13 -11z"/>
<path d="M4000 1129 c0 -5 5 -7 10 -4 6 3 10 8 10 11 0 2 -4 4 -10 4 -5 0 -10
-5 -10 -11z"/>
<path d="M7016 1070 c9 -73 14 -91 24 -85 15 10 11 46 -10 90 l-20 40 6 -45z"/>
<path d="M4398 1089 c-2 -5 -18 -11 -36 -11 -27 -1 -32 -5 -32 -26 0 -24 1
-24 13 -8 10 14 18 15 40 7 24 -9 27 -8 27 9 0 11 5 20 11 20 5 0 7 5 4 10 -8
13 -22 13 -27 -1z"/>
<path d="M2727 1073 c-8 -7 22 -53 66 -102 30 -34 42 -40 62 -35 22 5 55 -13
55 -30 0 -10 62 -96 69 -96 4 0 15 6 25 13 14 10 15 18 7 40 -14 35 -64 82
-116 109 -22 12 -44 26 -50 33 -15 18 -112 74 -118 68z"/>
<path d="M4170 977 c0 -32 3 -38 16 -33 9 3 20 6 25 6 5 0 9 9 9 20 0 11 6 20
12 20 7 0 4 6 -7 14 -37 25 -55 17 -55 -27z"/>
<path d="M4178 923 c7 -3 16 -2 19 1 4 3 -2 6 -13 5 -11 0 -14 -3 -6 -6z"/>
<path d="M3030 875 c7 -9 11 -18 8 -21 -9 -8 96 -124 112 -124 3 0 11 4 19 9
12 8 9 15 -15 41 -57 64 -109 110 -123 110 -11 0 -11 -3 -1 -15z"/>
<path d="M3751 814 c0 -11 3 -14 6 -6 3 7 2 16 -1 19 -3 4 -6 -2 -5 -13z"/>
<path d="M3653 765 c-17 -19 -16 -22 7 -28 16 -4 20 0 20 19 0 27 -9 30 -27 9z"/>
<path d="M6474 656 c-9 -23 0 -79 13 -83 16 -6 26 31 18 67 -7 32 -22 39 -31
16z"/>
<path d="M6466 513 c-9 -9 -7 -86 3 -101 9 -14 21 28 21 74 0 24 -12 38 -24
27z"/>
<path d="M6414 428 c3 -13 6 -30 6 -38 1 -9 5 -6 10 8 10 24 4 52 -12 52 -6 0
-8 -10 -4 -22z"/>
<path d="M7261 253 c1 -101 4 -127 10 -98 12 58 11 235 -1 235 -6 0 -10 -52
-9 -137z"/>
<path d="M4757 354 c-9 -10 2 -24 19 -24 8 0 14 7 14 15 0 15 -21 21 -33 9z"/>
<path d="M9476 201 c-4 -7 -14 -10 -22 -7 -7 3 -21 -3 -30 -12 -10 -9 -20 -17
-23 -18 -37 -5 -82 -18 -87 -25 -3 -5 -16 -9 -29 -9 -19 0 -23 -4 -19 -17 5
-16 4 -16 -8 -2 -12 14 -15 14 -32 -2 -18 -18 -56 -22 -56 -7 0 5 -11 1 -24
-7 -14 -9 -30 -15 -38 -14 -24 3 -39 -1 -34 -9 3 -5 -1 -9 -9 -9 -8 0 -12 4
-9 9 3 4 -4 8 -15 8 -12 0 -21 -6 -21 -14 0 -9 -10 -13 -31 -12 -16 1 -32 -1
-35 -6 -3 -4 0 -8 6 -8 6 0 9 -4 5 -9 -3 -6 -15 -8 -27 -6 -12 3 -26 -1 -30
-8 -6 -9 -8 -9 -8 1 0 7 -5 10 -10 7 -6 -4 -23 -9 -37 -11 -15 -3 -30 -7 -32
-10 -2 -2 163 -4 367 -4 l372 0 0 99 c0 93 -9 127 -26 100 -4 -8 -9 -7 -15 2
-8 12 -10 12 -18 0 -7 -11 -9 -11 -13 0 -3 10 -6 10 -12 0z"/>
<path d="M180 145 c-13 -16 -90 -19 -90 -3 0 4 -20 8 -45 8 l-45 0 0 -75 0
-75 205 0 205 0 0 23 c0 13 -3 17 -8 11 -10 -17 -52 2 -52 23 0 14 -2 15 -9 5
-11 -18 -22 8 -14 36 6 26 -13 37 -33 18 -8 -9 -12 -16 -7 -16 5 0 14 5 21 12
9 9 12 8 12 -5 0 -9 -5 -17 -11 -17 -5 0 -7 -6 -3 -12 6 -10 5 -10 -8 -1 -8 7
-18 9 -22 5 -4 -4 -14 2 -22 12 -8 11 -14 14 -14 8 0 -7 -5 -12 -11 -12 -5 0
-7 5 -4 10 4 6 -5 10 -19 10 -17 0 -26 6 -26 16 0 8 3 13 8 11 4 -3 13 1 20 9
10 11 10 14 -1 14 -8 0 -20 -7 -27 -15z"/>
<path d="M600 15 c0 -8 4 -15 10 -15 5 0 7 7 4 15 -8 19 -14 19 -14 0z"/>
<path d="M641 14 c0 -11 3 -14 6 -6 3 7 2 16 -1 19 -3 4 -6 -2 -5 -13z"/>
</g>
</svg>
